<svg width="24" height="24" viewBox="0 0 24 24" fill="none" xmlns="http://www.w3.org/2000/svg">
<path d="M6.04167 13.9167C5.02654 13.9167 4.27904 13.9724 3.71931 14.0968C3.17093 14.2186 2.86593 14.3928 2.67101 14.5877C2.47609 14.7826 2.30197 15.0876 2.18009 15.636C2.0557 16.1957 2 16.9432 2 17.9583C2 18.9735 2.0557 19.721 2.18009 20.2807C2.30197 20.8291 2.47609 21.1341 2.67101 21.329C2.86593 21.5239 3.17093 21.698 3.71931 21.8199C4.27904 21.9443 5.02654 22 6.04167 22C7.0568 22 7.80429 21.9443 8.36402 21.8199C8.9124 21.698 9.2174 21.5239 9.41232 21.329C9.60725 21.1341 9.78137 20.8291 9.90324 20.2807C10.0276 19.721 10.0833 18.9735 10.0833 17.9583C10.0833 16.9432 10.0276 16.1957 9.90324 15.636C9.78137 15.0876 9.60725 14.7826 9.41232 14.5877C9.2174 14.3928 8.9124 14.2186 8.36402 14.0968C7.80429 13.9724 7.0568 13.9167 6.04167 13.9167ZM6.04167 2C5.02654 2 4.27904 2.0557 3.71931 2.1801C3.17093 2.30197 2.86593 2.47609 2.67101 2.67101C2.47609 2.86593 2.30197 3.17093 2.18009 3.71931C2.0557 4.27905 2 5.02654 2 6.04167C2 7.0568 2.0557 7.80429 2.18009 8.36403C2.30197 8.91241 2.47609 9.2174 2.67101 9.41232C2.86593 9.60725 3.17093 9.78137 3.71931 9.90324C4.27904 10.0276 5.02654 10.0833 6.04167 10.0833C7.0568 10.0833 7.80429 10.0276 8.36402 9.90324C8.9124 9.78137 9.2174 9.60725 9.41232 9.41232C9.60725 9.2174 9.78137 8.91241 9.90324 8.36403C10.0276 7.80429 10.0833 7.0568 10.0833 6.04167C10.0833 5.02654 10.0276 4.27905 9.90324 3.71931C9.78137 3.17093 9.60725 2.86593 9.41232 2.67101C9.2174 2.47609 8.9124 2.30197 8.36402 2.1801C7.80429 2.0557 7.0568 2 6.04167 2ZM17.9583 2C16.9432 2 16.1957 2.0557 15.636 2.1801C15.0876 2.30197 14.7826 2.47609 14.5877 2.67101C14.3928 2.86593 14.2186 3.17093 14.0968 3.71931C13.9724 4.27905 13.9167 5.02654 13.9167 6.04167C13.9167 7.0568 13.9724 7.80429 14.0968 8.36403C14.2186 8.91241 14.3928 9.2174 14.5877 9.41232C14.7826 9.60725 15.0876 9.78137 15.636 9.90324C16.1957 10.0276 16.9432 10.0833 17.9583 10.0833C18.9735 10.0833 19.721 10.0276 20.2807 9.90324C20.8291 9.78137 21.1341 9.60725 21.329 9.41232C21.5239 9.2174 21.698 8.91241 21.8199 8.36403C21.9443 7.80429 22 7.0568 22 6.04167C22 5.02654 21.9443 4.27905 21.8199 3.71931C21.698 3.17093 21.5239 2.86593 21.329 2.67101C21.1341 2.47609 20.8291 2.30197 20.2807 2.1801C19.721 2.0557 18.9735 2 17.9583 2Z" stroke="#111827" stroke-width="2" stroke-linecap="round" stroke-linejoin="round"/>
<path d="M6.02 4.94C5.01533 4.94 4.8 5.15533 4.8 6.16C4.8 7.16467 5.01533 7.38 6.02 7.38C7.02467 7.38 7.24 7.16467 7.24 6.16C7.24 5.15533 7.02467 4.94 6.02 4.94Z" fill="#111827"/>
<path d="M18.02 4.94C17.0153 4.94 16.8 5.15533 16.8 6.16C16.8 7.16467 17.0153 7.38 18.02 7.38C19.0247 7.38 19.24 7.16467 19.24 6.16C19.24 5.15533 19.0247 4.94 18.02 4.94Z" fill="#111827"/>
<path d="M6.02 16.76C5.01533 16.76 4.8 16.9753 4.8 17.98C4.8 18.9847 5.01533 19.2 6.02 19.2C7.02467 19.2 7.24 18.9847 7.24 17.98C7.24 16.9753 7.02467 16.76 6.02 16.76Z" fill="#111827"/>
<path d="M15.8413 19.5079C14.8348 19.5079 14.619 19.7237 14.619 20.7302C14.619 21.7367 14.8348 21.9524 15.8413 21.9524C16.8478 21.9524 17.0635 21.7367 17.0635 20.7302C17.0635 19.7237 16.8478 19.5079 15.8413 19.5079Z" fill="#111827"/>
<path d="M15.8413 14.6191C14.8348 14.6191 14.619 14.8348 14.619 15.8413C14.619 16.8478 14.8348 17.0635 15.8413 17.0635C16.8478 17.0635 17.0635 16.8478 17.0635 15.8413C17.0635 14.8348 16.8478 14.6191 15.8413 14.6191Z" fill="#111827"/>
<path d="M18.2857 17.0635C17.2792 17.0635 17.0635 17.2792 17.0635 18.2857C17.0635 19.2922 17.2792 19.5079 18.2857 19.5079C19.2922 19.5079 19.5079 19.2922 19.5079 18.2857C19.5079 17.2792 19.2922 17.0635 18.2857 17.0635Z" fill="#111827"/>
<path d="M20.7302 19.5079C19.7237 19.5079 19.5079 19.7237 19.5079 20.7302C19.5079 21.7367 19.7237 21.9524 20.7302 21.9524C21.7367 21.9524 21.9524 21.7367 21.9524 20.7302C21.9524 19.7237 21.7367 19.5079 20.7302 19.5079Z" fill="#111827"/>
<path d="M20.7302 14.6191C19.7237 14.6191 19.5079 14.8348 19.5079 15.8413C19.5079 16.8478 19.7237 17.0635 20.7302 17.0635C21.7367 17.0635 21.9524 16.8478 21.9524 15.8413C21.9524 14.8348 21.7367 14.6191 20.7302 14.6191Z" fill="#111827"/>
</svg>
